<svg xmlns="http://www.w3.org/2000/svg" viewBox="0 0 256 256">
  <defs>
    <linearGradient id="g" x1="0%" y1="0%" x2="100%" y2="100%">
      <stop offset="0%" stop-color="#FF694A"/>
      <stop offset="100%" stop-color="#FF4F33"/>
    </linearGradient>
  </defs>
  <path d="M128 0L236 64v128l-108 64L20 192V64z" fill="url(#g)"/>
  <path d="M112 72v48H80c-4.4 0-8 3.6-8 8v8c0 4.4 3.6 8 8 8h32v48c0 4.4 3.6 8 8 8h16c4.4 0 8-3.6 8-8v-48h32c4.4 0 8-3.6 8-8v-8c0-4.4-3.6-8-8-8h-32V72c0-4.4-3.6-8-8-8h-16c-4.4 0-8 3.6-8 8z" fill="rgba(255,255,255,0.95)"/>
</svg>
