<svg xmlns="http://www.w3.org/2000/svg" viewBox="0 0 48 48"><path fill="#fe6703" transform="translate(8,8)" d="M30.363 1.54a4.4 4.4 0 0 1 1.34 2.68c0 .427-.113.715-.373 1.252-.26.54-3.42 6.012-4.365 7.527a5.8 5.8 0 0 0-.825 2.965 5.8 5.8 0 0 0 .825 2.966c.938 1.514 4.106 7.011 4.365 7.562.26.54.373.8.373 1.227-.113 1.028-.565 1.966-1.315 2.653-.715.74-1.653 1.226-2.652 1.315-.427 0-.715-.114-1.226-.373-.512-.26-15.458-8.9-15.458-8.9.175 1.426.8 2.795 1.828 3.794.199.2.401.373.625.54-.174.086-7.55 4.395-8.098 4.655-.54.26-.8.373-1.251.373-1.028-.114-1.966-.565-2.652-1.316a4.4 4.4 0 0 1-1.34-2.68c.024-.427.149-.854.373-1.227.26-.54 3.42-6.048 4.365-7.563a5.7 5.7 0 0 0 .825-2.965 5.7 5.7 0 0 0-.825-2.965C3.964 11.495.772 5.984.537 5.446A2.8 2.8 0 0 1 .164 4.22a4.33 4.33 0 0 1 1.315-2.68A4.38 4.38 0 0 1 4.159.224c.427.025.854.15 1.252.373.451.2 15.364 8.996 15.364 8.996a6.16 6.16 0 0 0-2.388-4.302c.106-.057 7.511-4.448 8.062-4.683.373-.228.8-.338 1.252-.373a4.3 4.3 0 0 1 2.651 1.315l.018-.007zm-13.9 17.123 2.133-2.14c.295-.299.295-.743 0-1.053l-2.133-2.14c-.295-.299-.74-.299-1.049 0l-2.133 2.14c-.295.299-.295.743 0 1.053l2.133 2.14c.264.263.74.263 1.05 0"/></svg>
